<svg width="203" height="39" viewBox="0 0 203 39" fill="none" xmlns="http://www.w3.org/2000/svg">
<path d="M64.5486 7.29744V19.6085H60.9431L56.009 14.0164V19.6085H51.7332V7.29744H55.3386L60.2788 12.8895V7.29744H64.5486Z" fill="white"/>
<path d="M74.96 16.1556C75.4028 15.9017 75.7665 15.5304 76.0108 15.083C76.2782 14.583 76.4113 14.0225 76.3973 13.456C76.4113 12.8894 76.2782 12.3289 76.0108 11.8289C75.7681 11.3803 75.404 11.0087 74.96 10.7563C74.5078 10.5073 73.9998 10.3767 73.4834 10.3767C72.9669 10.3767 72.4589 10.5073 72.0068 10.7563C71.5628 11.0087 71.1987 11.3803 70.9559 11.8289C70.6864 12.3284 70.5512 12.8889 70.5633 13.456C70.5512 14.023 70.6864 14.5835 70.9559 15.083C71.2002 15.5304 71.5639 15.9017 72.0068 16.1556C72.4589 16.4046 72.9669 16.5352 73.4834 16.5352C73.9998 16.5352 74.5078 16.4046 74.96 16.1556ZM69.7118 19.0661C68.6426 18.5591 67.7368 17.7639 67.0968 16.7702C66.4618 15.7822 66.132 14.6296 66.1486 13.456C66.1312 12.2803 66.461 11.1256 67.0968 10.1357C67.7402 9.14493 68.6451 8.3505 69.7118 7.83976C70.8944 7.29591 72.1812 7.01429 73.4834 7.01429C74.7856 7.01429 76.0723 7.29591 77.2549 7.83976C78.3194 8.35386 79.2234 9.14757 79.87 10.1357C80.5058 11.1256 80.8355 12.2803 80.8181 13.456C80.8347 14.6296 80.5049 15.7822 79.87 16.7702C79.227 17.7614 78.322 18.5559 77.2549 19.0661C76.0723 19.61 74.7856 19.8916 73.4834 19.8916C72.1812 19.8916 70.8944 19.61 69.7118 19.0661Z" fill="white"/>
<path d="M95.8439 7.29744L90.3421 19.6085H86.0361L80.5403 7.29744H85.257L88.3552 14.4924L91.5319 7.29744H95.8439Z" fill="white"/>
<path d="M104.378 16.1554C104.821 15.9015 105.184 15.5303 105.429 15.0828C105.696 14.5828 105.829 14.0223 105.815 13.4558C105.829 12.8893 105.696 12.3288 105.429 11.8288C105.186 11.3802 104.822 11.0085 104.378 10.7562C103.926 10.5072 103.418 10.3766 102.901 10.3766C102.385 10.3766 101.877 10.5072 101.425 10.7562C100.981 11.0085 100.616 11.3802 100.374 11.8288C100.104 12.3282 99.969 12.8887 99.9811 13.4558C99.969 14.0229 100.104 14.5834 100.374 15.0828C100.618 15.5303 100.982 15.9015 101.425 16.1554C101.877 16.4044 102.385 16.535 102.901 16.535C103.418 16.535 103.926 16.4044 104.378 16.1554ZM99.1296 19.066C98.0608 18.5559 97.1538 17.7614 96.5085 16.7701C95.8758 15.781 95.5462 14.6291 95.5603 13.4558C95.5451 12.2804 95.8747 11.1263 96.5085 10.1355C97.1574 9.14719 98.0634 8.35357 99.1296 7.83961C100.311 7.29588 101.597 7.01431 102.898 7.01431C104.199 7.01431 105.485 7.29588 106.667 7.83961C107.744 8.34653 108.659 9.14118 109.312 10.1355C109.948 11.1254 110.277 12.2802 110.26 13.4558C110.277 14.6294 109.947 15.782 109.312 16.7701C108.669 17.7639 107.762 18.5591 106.691 19.066C105.509 19.6097 104.223 19.8913 102.922 19.8913C101.621 19.8913 100.335 19.6097 99.1537 19.066" fill="white"/>
<path d="M113.54 19.5239C112.658 19.3477 111.809 19.0367 111.022 18.6019L112.435 15.5889C113.092 15.9443 113.79 16.2194 114.512 16.4084C115.233 16.6069 115.976 16.7102 116.723 16.7158C117.162 16.7387 117.602 16.6815 118.021 16.547C118.131 16.5154 118.228 16.4501 118.299 16.3603C118.369 16.2705 118.409 16.1608 118.414 16.0469C118.414 15.7878 118.245 15.5949 117.901 15.4443C117.351 15.2646 116.79 15.1236 116.222 15.0225C115.373 14.8649 114.536 14.6515 113.715 14.3837C113.049 14.1589 112.449 13.7716 111.97 13.2569C111.453 12.6744 111.186 11.9126 111.227 11.1357C111.223 10.377 111.464 9.63723 111.916 9.02664C112.441 8.34361 113.151 7.82501 113.963 7.5322C115.024 7.14286 116.149 6.95681 117.278 6.98384C118.161 6.98275 119.042 7.07363 119.906 7.255C120.697 7.42246 121.461 7.69825 122.176 8.07453L120.86 11.0875C119.737 10.5122 118.498 10.199 117.236 10.1716C116.107 10.1716 115.545 10.4307 115.545 10.9429C115.545 11.19 115.714 11.3707 116.046 11.4973C116.587 11.6713 117.14 11.8042 117.701 11.895C118.551 12.0314 119.389 12.2329 120.208 12.4976C120.889 12.7204 121.503 13.1099 121.995 13.6305C122.255 13.9147 122.455 14.2475 122.585 14.6095C122.714 14.9715 122.77 15.3557 122.75 15.7396C122.754 16.4963 122.512 17.2339 122.062 17.8426C121.532 18.5237 120.82 19.0417 120.008 19.3371C118.949 19.7314 117.823 19.9196 116.693 19.8914C115.631 19.8859 114.574 19.7626 113.54 19.5239Z" fill="white"/>
<path d="M134.84 16.481V19.6085H124.03V7.29744H134.598V10.4309H128.342V11.8711H133.837V14.86H128.342V16.481H134.84Z" fill="white"/>
<path d="M136.531 7.29744H140.916V16.3906H146.786V19.6085H136.531V7.29744Z" fill="white"/>
<path d="M152.379 7.29744H147.994V19.6085H152.379V7.29744Z" fill="white"/>
<path d="M165.296 16.481V19.6085H154.492V7.29744H165.055V10.4309H158.798V11.8711H164.294V14.86H158.798V16.481H165.296Z" fill="white"/>
<path d="M57.9778 33.9864C58.8013 34.03 59.6099 33.756 60.2365 33.2211C60.5249 32.9448 60.7498 32.6094 60.8958 32.238C61.0418 31.8666 61.1053 31.4681 61.082 31.0698C61.1054 30.6707 61.0419 30.2712 60.896 29.8989C60.75 29.5265 60.5251 29.19 60.2365 28.9126C59.6123 28.3712 58.8041 28.0887 57.9778 28.1232H56.166V33.9864H57.9778ZM51.7332 24.8872H58.1409C59.4581 24.8595 60.7659 25.1144 61.9759 25.6344C63.0444 26.0848 63.9562 26.8395 64.5973 27.804C65.2384 28.7686 65.5803 29.9004 65.5803 31.0578C65.5803 32.2152 65.2384 33.347 64.5973 34.3115C63.9562 35.2761 63.0444 36.0308 61.9759 36.4812C60.765 36.9984 59.4578 37.2531 58.1409 37.2284H51.7332V24.8872Z" fill="white"/>
<path d="M77.8834 34.0708V37.2043H67.073V24.8872H77.6418V28.0207H71.3851V29.4609H76.8809V32.4498H71.3851V34.0708H77.8834Z" fill="white"/>
<path d="M93.2768 24.8872L87.781 37.2043H83.475L77.9731 24.8872H82.6959L85.7941 32.0822L88.9708 24.8872H93.2768Z" fill="white"/>
<path d="M104.517 34.0708V37.2043H93.7065V24.8872H104.275V28.0207H98.0126V29.4609H103.514V32.4498H98.0126V34.0708H104.517Z" fill="white"/>
<path d="M106.202 24.8872H110.586V33.9804H116.457V37.2043H106.202V24.8872Z" fill="white"/>
<path d="M125.769 33.7454C126.214 33.4924 126.58 33.121 126.826 32.6728C127.084 32.1691 127.219 31.6115 127.219 31.0457C127.219 30.48 127.084 29.9224 126.826 29.4187C126.583 28.9701 126.219 28.5985 125.775 28.3461C125.323 28.0971 124.815 27.9665 124.299 27.9665C123.782 27.9665 123.274 28.0971 122.822 28.3461C122.379 28.6 122.015 28.9712 121.771 29.4187C121.516 29.9234 121.383 30.4806 121.383 31.0457C121.383 31.6109 121.516 32.1681 121.771 32.6728C122.017 33.1189 122.38 33.4898 122.822 33.7454C123.274 33.9944 123.782 34.125 124.299 34.125C124.815 34.125 125.323 33.9944 125.775 33.7454H125.769ZM120.527 36.6559C119.459 36.1473 118.553 35.3524 117.912 34.36C117.294 33.3646 116.966 32.2168 116.966 31.0457C116.966 29.8747 117.294 28.7268 117.912 27.7315C118.557 26.742 119.461 25.9479 120.527 25.4356C121.71 24.8917 122.996 24.6101 124.299 24.6101C125.601 24.6101 126.887 24.8917 128.07 25.4356C129.136 25.9495 130.042 26.7432 130.691 27.7315C131.309 28.7268 131.637 29.8747 131.637 31.0457C131.637 32.2168 131.309 33.3646 130.691 34.36C130.046 35.3514 129.139 36.1458 128.07 36.6559C126.887 37.1998 125.601 37.4814 124.299 37.4814C122.996 37.4814 121.71 37.1998 120.527 36.6559Z" fill="white"/>
<path d="M140.54 30.5936C140.692 30.4634 140.811 30.2998 140.889 30.1158C140.967 29.9317 141 29.7322 140.987 29.533C140.999 29.333 140.965 29.1329 140.888 28.948C140.81 28.7631 140.692 28.5984 140.54 28.4664C140.155 28.1858 139.682 28.0513 139.206 28.0868H137.611V30.9732H139.206C139.682 31.0087 140.155 30.8741 140.54 30.5936ZM142.624 25.4474C143.453 25.7775 144.169 26.3406 144.683 27.0684C145.157 27.8025 145.408 28.657 145.408 29.53C145.408 30.4029 145.157 31.2574 144.683 31.9916C144.17 32.7208 143.454 33.2842 142.624 33.6126C141.626 34.0108 140.558 34.2035 139.484 34.179H137.611V37.192H133.227V24.887H139.508C140.581 24.8637 141.649 25.0542 142.648 25.4474" fill="white"/>
<path d="M158.447 37.2043L158.411 31.5881L155.585 36.0955H153.652L150.832 31.7809V37.2043H146.84V24.8872H150.439L154.673 31.4495L158.797 24.8872H162.403L162.439 37.2043H158.447Z" fill="white"/>
<path d="M175.364 34.0708V37.2043H164.559V24.8872H175.122V28.0207H168.865V29.4609H174.361V32.4498H168.865V34.0708H175.364Z" fill="white"/>
<path d="M189.865 24.8872V37.2043H186.266L181.325 31.6062V37.2043H177.056V24.8872H180.655L185.595 30.4853V24.8872H189.865Z" fill="white"/>
<path d="M194.811 28.1051H191V24.8872H203V28.1051H199.195V37.2043H194.811V28.1051Z" fill="white"/>
<path d="M29.4297 4.30855V23.0674L27.4065 22.8685V3.6457L13.5342 0.24103V38.0057C15.811 37.9575 18.1905 37.9274 20.6485 37.9274C22.9857 37.9274 25.2384 37.9575 27.4065 37.9997V23.5374L29.4297 23.7363V38.0419C34.5027 38.1805 38.9477 38.4336 42.2935 38.759V7.34564L29.4297 4.30855Z" fill="white"/>
<path d="M7.49481 3.25401V22.8926L5.47163 23.206V11.5578H5.43539V4.2724L0 7.0805V38.6686C1.61854 38.524 3.44242 38.4034 5.43539 38.295V35.1253V23.8507L7.45857 23.5374V38.2046C9.36096 38.1263 11.366 38.06 13.4979 38.0118V0.241028L7.49481 3.25401Z" fill="white"/>
</svg>
