<svg width="105" height="39" viewBox="0 0 105 39" fill="none" xmlns="http://www.w3.org/2000/svg">
<path d="M72 13.759V37.759H65.2479L56.0075 26.8574V37.759H48V13.759H54.7521L64.0038 24.6606V13.759H72Z" fill="white"/>
<path d="M90.7252 31.453C92.2714 31.5377 93.7898 31.005 94.9663 29.9651C95.5078 29.428 95.9301 28.7759 96.2042 28.0539C96.4782 27.3319 96.5975 26.557 96.5539 25.7828C96.5977 25.0068 96.4785 24.2302 96.2044 23.5062C95.9304 22.7823 95.508 22.1282 94.9663 21.5887C93.7943 20.5362 92.2768 19.9871 90.7252 20.054H87.3233V31.453H90.7252ZM79 13.7629H91.0314C93.5046 13.7091 95.9602 14.2045 98.2321 15.2156C100.239 16.0912 101.951 17.5583 103.154 19.4336C104.358 21.3089 105 23.5092 105 25.7594C105 28.0095 104.358 30.2098 103.154 32.0851C101.951 33.9604 100.239 35.4275 98.2321 36.3031C95.9585 37.3086 93.5041 37.8038 91.0314 37.7558H79V13.7629Z" fill="white"/>
<path d="M29.4297 4.06753V22.8263L27.4065 22.6275V3.40467L13.5342 1.90735e-06V37.7647C15.811 37.7165 18.1905 37.6864 20.6485 37.6864C22.9857 37.6864 25.2384 37.7165 27.4065 37.7587V23.2964L29.4297 23.4952V37.8009C34.5027 37.9395 38.9477 38.1925 42.2935 38.518V7.10461L29.4297 4.06753Z" fill="white"/>
<path d="M7.49481 3.01298V22.6516L5.47163 22.9649V11.3168H5.43539V4.03137L0 6.83947V38.4276C1.61854 38.2829 3.44242 38.1624 5.43539 38.054V34.8843V23.6097L7.45857 23.2964V37.9636C9.36096 37.8852 11.366 37.8189 13.4979 37.7707V0L7.49481 3.01298Z" fill="white"/>
</svg>
