<svg width="19" height="19" viewBox="0 0 19 19" fill="none" xmlns="http://www.w3.org/2000/svg">
<path d="M4.04 2.25898C4.1 3.14898 4.25 4.01898 4.49 4.84898L3.29 6.04898C2.88 4.84898 2.62 3.57898 2.53 2.25898H4.04ZM13.9 14.279C14.75 14.519 15.62 14.669 16.5 14.729V16.219C15.18 16.129 13.91 15.869 12.7 15.469L13.9 14.279ZM5 0.258976H1.5C0.95 0.258976 0.5 0.708976 0.5 1.25898C0.5 10.649 8.11 18.259 17.5 18.259C18.05 18.259 18.5 17.809 18.5 17.259V13.769C18.5 13.219 18.05 12.769 17.5 12.769C16.26 12.769 15.05 12.569 13.93 12.199C13.83 12.159 13.72 12.149 13.62 12.149C13.36 12.149 13.11 12.249 12.91 12.439L10.71 14.639C7.88 13.189 5.56 10.879 4.12 8.04898L6.32 5.84898C6.6 5.56898 6.68 5.17898 6.57 4.82898C6.2 3.70898 6 2.50898 6 1.25898C6 0.708976 5.55 0.258976 5 0.258976Z" fill="white"/>
</svg>
